# xmcd
#
# Track frame offsets:
#	150
#	13468
#	24936
#	38580
#	50074
#	63779
#	78433
#	89494
#	103671
#	116873
#	126159
#	141345
#	157394
#	169085
#	181548
#	194197
#
# Disc length: 2769 seconds
#
# Revision: 0
# Processed by: cddbd v1.5.2PL0 Copyright (c) Steve Scherf et al.
# Submitted via: EasyCDDAExtractor 16.0.6.1
#
DISCID=e40acf10
DTITLE=Ζαγοραίος Σπύρος - Σπύρος Ζαγοραίος 04
DYEAR=2010
DGENRE=Ποικίλη
TTITLE0=Ζαγοραίος Σπύρος - Ο έρωτας και ο τζόγος [Σ. Ζαγοραίος]
TTITLE1=Ζαγοραίος Σπύρος - Ο διαβολάκος [Π. Μιχαλόπουλος-Δ. Σκαρπέλης]
TTITLE2=Ζαγοραίος Σπύρος - Μωρή ζηλιάρα και τρελλή [Σ. Ζαγοραίος]
TTITLE3=Ζαγοραίος Σπύρος - Σ' άλλη γη, σ' άλλα μέρη [Δημ. Σφακιανός]
TTITLE4=Ζαγοραίος Σπύρος - Αλάνια [Βασ. Τσιτσάνης]
TTITLE5=Ζαγοραίος Σπύρος - Πού 'σουν, μάγκα, το χειμώνα [Γ. Μουφλουζέλης]
TTITLE6=Ζαγοραίος Σπύρος - Πού πας, μεμέτη μου - [Χρ. Μαρίνος]
TTITLE7=Ζαγοραίος Σπύρος - Μόνος στη ζωή μου [Σ. Ζαγοραίος-Κ. Βίρβος]
TTITLE8=Ζαγοραίος Σπύρος - Κακούργα πεθερά(Το τρ. του Αθανασόπουλου)[Ιάκ. Μοντ
TTITLE8=ανάρης]
TTITLE9=Ζαγοραίος Σπύρος - Είσαι μούτρο κι είμαι αλάνι [Σ. Ζαγοραίος-Βασ. Ζαΐμ
TTITLE9=η]
TTITLE10=Ζαγοραίος Σπύρος - Την τρελλή μού παριστάνεις [Θ.Κολοκοτρώνης-ιδίου κ
TTITLE10=Μ.Δαλιάνης]
TTITLE11=Ζαγοραίος Σπύρος - Στου Λινάρδου την ταβέρνα [Παν. Τούντας]
TTITLE12=Ζαγοραίος Σπύρος - Μπαρμπα Γιάννη με τις στάμνες [Σ. Ζαγοραίος]
TTITLE13=Ζαγοραίος Σπύρος - Ο αλήτης [Σ. Ζαγοραίος]
TTITLE14=Ζαγοραίος Σπύρος-Γιαννακάκη Έλενα - Κατηγόρα με [Δημ. Γκούτης]
TTITLE15=Ζαγοραίος Σπύρος - Στο μεγάλο κόλπο [Σ. Ζαγοραίος]
EXTD=
EXTT0=
EXTT1=
EXTT2=
EXTT3=
EXTT4=
EXTT5=
EXTT6=
EXTT7=
EXTT8=
EXTT9=
EXTT10=
EXTT11=
EXTT12=
EXTT13=
EXTT14=
EXTT15=
PLAYORDER=
